<svg width="30" height="38" viewBox="0 0 30 38" fill="none" xmlns="http://www.w3.org/2000/svg">
<path d="M9.13043 17.3077C7.40076 17.3077 5.74193 16.5479 4.51887 15.1955C3.2958 13.8431 2.60869 12.0088 2.60869 10.0962V4.32692C2.60869 3.9444 2.74612 3.57754 2.99073 3.30706C3.23534 3.03657 3.56711 2.88462 3.91304 2.88462H5.21739C5.56332 2.88462 5.89509 2.73266 6.1397 2.46217C6.38431 2.19169 6.52174 1.82483 6.52174 1.44231C6.52174 1.05978 6.38431 0.692927 6.1397 0.422442C5.89509 0.151957 5.56332 0 5.21739 0H3.91304C2.87524 0 1.87994 0.455871 1.1461 1.26733C0.412266 2.07878 0 3.17935 0 4.32692V10.0962C0.00167663 11.7256 0.361007 13.3302 1.04713 14.7722C1.73325 16.2143 2.72566 17.4506 3.93913 18.375C5.10616 19.5105 6.05245 20.8963 6.72061 22.4483C7.38876 24.0003 7.76486 25.6863 7.82608 27.4038C7.82608 30.0815 8.78804 32.6495 10.5003 34.5429C12.2126 36.4363 14.535 37.5 16.9565 37.5C19.3781 37.5 21.7004 36.4363 23.4127 34.5429C25.125 32.6495 26.0869 30.0815 26.0869 27.4038V25.7596C27.3165 25.4086 28.3881 24.5737 29.1008 23.4115C29.8135 22.2493 30.1184 20.8396 29.9584 19.4466C29.7984 18.0536 29.1844 16.773 28.2316 15.8447C27.2788 14.9165 26.0525 14.4044 24.7826 14.4044C23.5127 14.4044 22.2864 14.9165 21.3336 15.8447C20.3808 16.773 19.7668 18.0536 19.6068 19.4466C19.4468 20.8396 19.7517 22.2493 20.4644 23.4115C21.1771 24.5737 22.2487 25.4086 23.4783 25.7596V27.4038C23.4783 29.3165 22.7911 31.1507 21.5681 32.5032C20.345 33.8556 18.6862 34.6154 16.9565 34.6154C15.2268 34.6154 13.568 33.8556 12.345 32.5032C11.1219 31.1507 10.4348 29.3165 10.4348 27.4038C10.4993 25.6841 10.8795 23.9969 11.5522 22.4447C12.2249 20.8926 13.176 19.5079 14.3478 18.375C15.5565 17.4474 16.5438 16.2096 17.2253 14.7678C17.9068 13.326 18.2621 11.723 18.2609 10.0962V4.32692C18.2609 3.17935 17.8486 2.07878 17.1148 1.26733C16.3809 0.455871 15.3856 0 14.3478 0H13.0435C12.6975 0 12.3658 0.151957 12.1212 0.422442C11.8765 0.692927 11.7391 1.05978 11.7391 1.44231C11.7391 1.82483 11.8765 2.19169 12.1212 2.46217C12.3658 2.73266 12.6975 2.88462 13.0435 2.88462H14.3478C14.6938 2.88462 15.0255 3.03657 15.2701 3.30706C15.5147 3.57754 15.6522 3.9444 15.6522 4.32692V10.0962C15.6522 11.0432 15.4835 11.9809 15.1557 12.8559C14.828 13.7308 14.3476 14.5258 13.742 15.1955C13.1364 15.8651 12.4174 16.3963 11.6262 16.7587C10.8349 17.1212 9.98688 17.3077 9.13043 17.3077ZM24.7826 23.0769C24.0907 23.0769 23.4272 22.773 22.938 22.232C22.4487 21.6911 22.1739 20.9574 22.1739 20.1923C22.1739 19.4273 22.4487 18.6935 22.938 18.1526C23.4272 17.6116 24.0907 17.3077 24.7826 17.3077C25.4745 17.3077 26.138 17.6116 26.6272 18.1526C27.1164 18.6935 27.3913 19.4273 27.3913 20.1923C27.3913 20.9574 27.1164 21.6911 26.6272 22.232C26.138 22.773 25.4745 23.0769 24.7826 23.0769Z" fill="#6D674E"/>
</svg>
